Coordinates
version=1
nRows=34
nColumns=17
inDegrees=yes

Units are S.I. units (second, meters, Newtons, ...)
If the header above contains a line with 'inDegrees', this indicates whether rotational values are in degrees (yes) or radians (no).

endheader
time	pelvis_tilt	pelvis_tx	pelvis_ty	hip_flexion_l	hip_flexion_r	knee_angle_l	knee_angle_r	ankle_angle_l	ankle_angle_r	lumbar_extension	FC_flexion	FC_adduction	FC_rotation	FC_tx	FC_ty	FC_tz
      7.67000000	     98.54474223	     -0.32122085	      1.03913187	     -7.79515169	      3.77408710	     -3.92488987	    -10.81319885	    -36.02918937	     26.34440466	    -23.69348340	     74.32558037	     48.56010298	    106.38432107	      0.05369528	     -0.01702226	     -0.17475695
      7.68000000	     98.35032342	     -0.32137354	      1.03898105	     -7.67186968	      4.03629152	     -3.73481366	    -10.83751143	    -36.04050617	     26.32172609	    -23.51306907	     74.36069159	     48.54716384	    106.41629567	      0.05323616	     -0.01708644	     -0.17473424
      7.69000000	     98.44857060	     -0.32128005	      1.03907086	     -7.71961690	      3.90436775	     -3.85897294	    -10.83251342	    -36.05282779	     26.44516443	    -23.59689951	     74.33689878	     48.54361472	    106.41939009	      0.05353685	     -0.01702280	     -0.17470310
      7.70000000	     98.31780897	     -0.32139681	      1.03896728	     -7.63027459	      4.08450152	     -3.74163530	    -10.86568093	    -36.09178318	     26.52383425	    -23.48419262	     74.31770060	     48.54749084	    106.40975915	      0.05315340	     -0.01729414	     -0.17471322
      7.71000000	     98.31336649	     -0.32144523	      1.03900432	     -7.62924985	      4.08175668	     -3.74118709	    -10.86093257	    -36.09270151	     26.54569186	    -23.48422611	     74.33736505	     48.55011784	    106.43757609	      0.05316855	     -0.01720499	     -0.17478337
      7.72000000	     98.46819643	     -0.32138560	      1.03911505	     -7.74073569	      3.87345694	     -3.86179796	    -10.84039290	    -36.07243002	     26.66110707	    -23.62385197	     74.29250133	     48.57028806	    106.44079066	      0.05342109	     -0.01714511	     -0.17487836
      7.73000000	     98.47346366	     -0.32138866	      1.03908594	     -7.74817607	      3.89033952	     -3.85928598	    -10.88328029	    -36.06146981	     26.67914021	    -23.63165372	     74.29539013	     48.58033475	    106.45303916	      0.05340690	     -0.01697663	     -0.17493980
      7.74000000	     98.30745814	     -0.32146014	      1.03898572	     -7.64071416	      4.07564817	     -3.70527450	    -10.86705631	    -36.04823975	     26.02896178	    -23.46613938	     74.97199241	     48.62842094	    106.40754612	      0.05423681	     -0.01546764	     -0.17506739
      7.75000000	     98.46037220	     -0.32144899	      1.03911111	     -7.73724574	      3.86256020	     -3.84868201	    -10.82754649	    -36.01292442	     26.05603044	    -23.61186537	     74.98977520	     48.66431731	    106.36367647	      0.05454503	     -0.01531207	     -0.17518137
      7.76000000	     98.37949826	     -0.32144269	      1.03909110	     -7.70776566	      3.96604589	     -3.74428806	    -10.85085429	    -35.91657256	     26.70969218	    -23.53224761	     74.32685211	     48.70117033	    106.32285563	      0.05333722	     -0.01711385	     -0.17533859
      7.77000000	     98.31728292	     -0.32153390	      1.03893849	     -7.63014584	      4.07230294	     -3.73788629	    -10.88986261	    -36.01752737	     26.67485921	    -23.48349921	     74.36416520	     48.76753464	    106.29089026	      0.05319209	     -0.01721184	     -0.17548660
      7.78000000	     98.29688465	     -0.32157842	      1.03897814	     -7.61443979	      4.09270309	     -3.72607173	    -10.89578217	    -36.04132835	     25.94183984	    -23.46894720	     75.04659872	     48.82008235	    106.34051407	      0.05442419	     -0.01519364	     -0.17562483
      7.79000000	     98.50845642	     -0.32150281	      1.03907758	     -7.76591707	      3.81594231	     -3.89376710	    -10.86888704	    -35.93902958	     26.75197172	    -23.67289218	     74.22602320	     48.83580641	    106.41881875	      0.05360809	     -0.01689383	     -0.17567847
      7.80000000	     98.46021897	     -0.32151885	      1.03908256	     -7.74226260	      3.86748524	     -3.83992675	    -10.89129563	    -35.91149432	     26.80431656	    -23.63878258	     74.18336989	     48.83083782	    106.51302374	      0.05363859	     -0.01682622	     -0.17575052
      7.81000000	     98.46911584	     -0.32145330	      1.03908376	     -7.75217619	      3.85725617	     -3.84595287	    -10.91937134	    -35.90967528	     26.86723044	    -23.62188111	     74.22934222	     48.80036867	    106.55480274	      0.05378026	     -0.01659689	     -0.17567859
      7.82000000	     98.48102028	     -0.32141662	      1.03910269	     -7.76214398	      3.84031396	     -3.85559844	    -10.92941249	    -35.89748276	     27.01153857	    -23.64056089	     74.31779977	     48.80380588	    106.46690776	      0.05381338	     -0.01673927	     -0.17552107
      7.83000000	     98.49232973	     -0.32146560	      1.03908917	     -7.76900204	      3.83081926	     -3.86188044	    -10.93445669	    -35.89562571	     27.11770838	    -23.64655259	     74.41173447	     48.78011802	    106.36255341	      0.05373751	     -0.01688386	     -0.17538379
      7.84000000	     98.49378645	     -0.32148923	      1.03910376	     -7.76823007	      3.82450431	     -3.86630992	    -10.91654410	    -35.88214883	     27.16064579	    -23.65988153	     74.44952146	     48.77256951	    106.30257241	      0.05376812	     -0.01700127	     -0.17527771
      7.85000000	     98.45391462	     -0.32159425	      1.03898746	     -7.74227312	      3.90816577	     -3.82318219	    -10.94908393	    -35.89263840	     27.08101926	    -23.64092992	     74.42773419	     48.74521922	    106.36296221	      0.05371977	     -0.01687072	     -0.17524889
      7.86000000	     98.43941996	     -0.32158412	      1.03898664	     -7.73478745	      3.91584682	     -3.80871421	    -10.91959700	    -35.89207314	     27.03953525	    -23.62138602	     74.39138136	     48.74597436	    106.41986627	      0.05369348	     -0.01675562	     -0.17524454
      7.87000000	     98.34550429	     -0.32162256	      1.03886761	     -7.64890444	      4.05295405	     -3.75533816	    -10.93922084	    -35.96664367	     26.93702492	    -23.53781021	     74.36063049	     48.72945193	    106.54859168	      0.05367392	     -0.01648990	     -0.17527336
      7.88000000	     98.36606090	     -0.32157628	      1.03889102	     -7.66600302	      4.02766649	     -3.77032739	    -10.95492262	    -35.96369632	     26.94145333	    -23.55334370	     74.32717002	     48.70277315	    106.66902470	      0.05399102	     -0.01617326	     -0.17522328
      7.89000000	     98.49973304	     -0.32160707	      1.03901846	     -7.76738324	      3.83455796	     -3.87038706	    -10.90735856	    -35.91993615	     27.08334847	    -23.68342645	     74.24466391	     48.67876265	    106.73050721	      0.05417997	     -0.01611357	     -0.17513204
      7.90000000	     98.49181545	     -0.32162573	      1.03906507	     -7.76680945	      3.84532374	     -3.85702956	    -10.92276325	    -35.90655815	     27.25586349	    -23.67141754	     74.31282490	     48.69069445	    106.65056160	      0.05405453	     -0.01632649	     -0.17495320
      7.91000000	     98.48647209	     -0.32165109	      1.03894911	     -7.76355511	      3.87039882	     -3.84117919	    -10.94939048	    -35.89745425	     27.41165742	    -23.68193730	     74.42589007	     48.68373335	    106.52878760	      0.05391145	     -0.01657324	     -0.17478676
      7.92000000	     98.48002346	     -0.32168302	      1.03896121	     -7.76288927	      3.85928741	     -3.83185972	    -10.91402138	    -35.89647866	     27.45831479	    -23.67134515	     74.47868362	     48.66805465	    106.46866035	      0.05393251	     -0.01662329	     -0.17466202
      7.93000000	     98.46567453	     -0.32168407	      1.03894487	     -7.79778731	      3.88878571	     -3.78757167	    -10.92971398	    -35.78504683	     27.43697655	    -23.64673499	     74.39979226	     48.60341533	    106.58514663	      0.05401478	     -0.01644584	     -0.17452904
      7.94000000	     98.46543905	     -0.32175482	      1.03894347	     -7.75753244	      3.88981887	     -3.80621797	    -10.93081675	    -35.83743135	     27.40384916	    -23.66220406	     74.32090199	     48.56686464	    106.72895463	      0.05411492	     -0.01633811	     -0.17448419
      7.95000000	     98.45324604	     -0.32178090	      1.03892689	     -7.73847728	      3.91012070	     -3.81342723	    -10.93727916	    -35.94608465	     27.54785993	    -23.65264343	     74.06079357	     48.52801795	    106.88141984	      0.05387909	     -0.01657594	     -0.17439689
      7.96000000	     98.45525864	     -0.32181724	      1.03891755	     -7.74564431	      3.91219574	     -3.80654838	    -10.94250677	    -35.93753233	     27.54594662	    -23.65272682	     74.02695764	     48.47861509	    106.97246787	      0.05396724	     -0.01640929	     -0.17421771
      7.97000000	     98.44605873	     -0.32185844	      1.03891656	     -7.75929077	      3.92836351	     -3.76120556	    -10.95148203	    -35.90494299	     27.80892099	    -23.64411419	     73.85774435	     48.44135145	    106.95341835	      0.05364502	     -0.01701430	     -0.17401819
      7.98000000	     98.43596582	     -0.32189942	      1.03887755	     -7.77098918	      3.94136286	     -3.76052234	    -10.93704653	    -35.85756083	     27.88524803	    -23.64978211	     73.98291317	     48.46350029	    106.84183218	      0.05343236	     -0.01716731	     -0.17390659
      7.99000000	     98.47719340	     -0.32193435	      1.03887749	     -7.75541970	      3.89107776	     -3.82327672	    -10.93786143	    -35.91499888	     27.75727605	    -23.69324499	     74.24380399	     48.46687896	    106.77233910	      0.05388452	     -0.01676322	     -0.17381249
      8.00000000	     98.44902636	     -0.32197562	      1.03895077	     -7.74391705	      3.90716038	     -3.79466619	    -10.90497375	    -35.91401600	     27.71573286	    -23.65625181	     74.19365901	     48.45599291	    106.83107524	      0.05391564	     -0.01663339	     -0.17369159
